<svg xmlns="http://www.w3.org/2000/svg" height="24" viewBox="0 0 24 24" width="24">
    <path d="M0 0h24v24H0V0z" fill="none"/>
    <!-- Vertical Lines -->
    <rect x="7" y="3" width="2" height="18" fill="#B0BEC5"/>
    <rect x="15" y="3" width="2" height="18" fill="#B0BEC5"/>
    <!-- Horizontal Lines -->
    <rect x="3" y="7" width="18" height="2" fill="#B0BEC5"/>
    <rect x="3" y="15" width="18" height="2" fill="#B0BEC5"/>
    <!-- Frame -->
    <path d="M20 2H4c-1.1 0-2 .9-2 2v16c0 1.1.9 2 2 2h16c1.1 0 2-.9 2-2V4c0-1.1-.9-2-2-2zm0 18H4V4h16v16z" fill="#4285F4" opacity="0.5"/>
</svg>
