<svg xmlns="http://www.w3.org/2000/svg" height="24" viewBox="0 0 24 24" width="24">
    <path d="M0 0h24v24H0V0z" fill="none"/>
    <!-- Background / Sky -->
    <path d="M5 19h14V5H5v14zm0-14h14c1.1 0 2 .9 2 2v14c0 1.1-.9 2-2 2H5c-1.1 0-2-.9-2-2V7c0-1.1.9-2 2-2z" fill="#4285F4" opacity="0"/>
    <!-- Mountains -->
    <path d="M5 19h14v-6l-4.5-6-3.5 4.5-2.5-3L5 19z" fill="#34A853"/>
    <!-- Sun -->
    <circle cx="9" cy="9" r="2" fill="#FBC02D"/>
    <!-- Frame -->
    <path d="M19 3H5c-1.1 0-2 .9-2 2v14c0 1.1.9 2 2 2h14c1.1 0 2-.9 2-2V5c0-1.1-.9-2-2-2zm0 16H5V5h14v14z" fill="#4285F4"/>
</svg>
