<svg xmlns="http://www.w3.org/2000/svg" height="24" viewBox="0 0 24 24" width="24">
    <path d="M0 0h24v24H0V0z" fill="none"/>
    <!-- Back Folder (Darker Yellow) -->
    <path d="M10 4H4c-1.1 0-1.99.9-1.99 2L2 18c0 1.1.9 2 2 2h16c1.1 0 2-.9 2-2V8c0-1.1-.9-2-2-2h-8l-2-2z" fill="#FBC02D"/>
    <!-- Front Folder (Lighter Yellow) -->
    <path d="M22 8v10c0 1.1-.9 2-2 2H4c-1.1 0-2-.9-2-2l.01-10c0-1.1.89-2 1.99-2h16c1.1 0 2 .9 2 2z" fill="#FDD835"/>
    <!-- Arrow Up (Green) indicating Load -->
    <path d="M12 15l-4-4h3V9h2v2h3l-4 4z" fill="#34A853" transform="translate(0, -1)"/>
</svg>
