<svg xmlns="http://www.w3.org/2000/svg" height="24" viewBox="0 0 24 24" width="24">
    <path d="M0 0h24v24H0V0z" fill="none"/>
    <!-- Body (Blue) -->
    <path d="M17 3H5c-1.11 0-2 .9-2 2v14c0 1.1.89 2 2 2h14c1.1 0 2-.9 2-2V7l-4-4zm2 16H5V5h11.17L19 7.83V19z" fill="#4285F4"/>
    <!-- Label (White) -->
    <path d="M12 18c-1.66 0-3-1.34-3-3s1.34-3 3-3 3 1.34 3 3-1.34 3-3 3z" fill="#4285F4" opacity="0.1"/> 
    <rect x="6" y="4" width="10" height="4" fill="#E3F2FD"/>
    <!-- Metal Slider (Silver) -->
    <rect x="8" y="12" width="8" height="6" fill="#BDBDBD"/>
    <rect x="10" y="13" width="4" height="4" fill="#757575"/>
</svg>
