<svg xmlns="http://www.w3.org/2000/svg" height="24" viewBox="0 0 24 24" width="24">
    <path d="M0 0h24v24H0V0z" fill="none"/>
    <!-- Dashed Border (Purple) -->
    <path d="M19 3H5c-1.1 0-2 .9-2 2v14c0 1.1.9 2 2 2h14c1.1 0 2-.9 2-2V5c0-1.1-.9-2-2-2zm0 16H5V5h14v14z" fill="#AB47BC" opacity="0.3"/>
    <path d="M7 7h2v2H7zm4 0h2v2h-2zm4 0h2v2h-2zM7 11h2v2H7zm8 0h2v2h-2zM7 15h2v2H7zm4 0h2v2h-2zm4 0h2v2h-2z" fill="#7B1FA2"/>
    <path d="M12 12m-2 0a2 2 0 1 0 4 0a2 2 0 1 0 -4 0" fill="#9C27B0"/>
</svg>
